<svg xmlns="http://www.w3.org/2000/svg" xmlns:xlink="http://www.w3.org/1999/xlink" width="1920" zoomAndPan="magnify" viewBox="0 0 1440 809.999993" height="1080" preserveAspectRatio="xMidYMid meet" version="1.0"><defs><g/><clipPath id="6428d898a3"><path d="M 37 74.089844 L 224 74.089844 L 224 202 L 37 202 Z M 37 74.089844 " clip-rule="nonzero"/></clipPath><clipPath id="61eb2868e6"><path d="M 1 74.089844 L 113 74.089844 L 113 216 L 1 216 Z M 1 74.089844 " clip-rule="nonzero"/></clipPath><clipPath id="d1e03f423e"><path d="M 57 115 L 224 115 L 224 254.230469 L 57 254.230469 Z M 57 115 " clip-rule="nonzero"/></clipPath><clipPath id="8785d16118"><path d="M 1 74.089844 L 168 74.089844 L 168 219 L 1 219 Z M 1 74.089844 " clip-rule="nonzero"/></clipPath><clipPath id="482a7b1f78"><rect x="0" width="1294" y="0" height="255"/></clipPath></defs><g transform="matrix(1, 0, 0, 1, 54, 272)"><g clip-path="url(#482a7b1f78)"><path fill="#ffffff" d="M 419.765625 232.191406 C 417.164062 232.191406 414.980469 231.363281 413.207031 229.710938 C 411.554688 227.9375 410.726562 225.75 410.726562 223.148438 L 410.726562 172.417969 C 410.726562 164.96875 408.894531 159.472656 405.230469 155.921875 C 401.566406 152.257812 396.78125 150.425781 390.875 150.425781 C 384.730469 150.425781 379.652344 152.554688 375.632812 156.808594 C 371.734375 161.066406 369.785156 166.507812 369.785156 173.128906 L 355.070312 173.128906 C 355.070312 165.441406 356.726562 158.703125 360.035156 152.910156 C 363.34375 146.996094 367.953125 142.382812 373.859375 139.074219 C 379.886719 135.761719 386.742188 134.105469 394.421875 134.105469 C 401.15625 134.105469 407.125 135.585938 412.320312 138.542969 C 417.519531 141.496094 421.539062 145.871094 424.375 151.667969 C 427.328125 157.34375 428.804688 164.261719 428.804688 172.417969 L 428.804688 223.148438 C 428.804688 225.75 427.976562 227.9375 426.324219 229.710938 C 424.671875 231.363281 422.484375 232.191406 419.765625 232.191406 Z M 301.542969 232.191406 C 298.945312 232.191406 296.757812 231.363281 294.988281 229.710938 C 293.332031 227.9375 292.503906 225.75 292.503906 223.148438 L 292.503906 144.21875 C 292.503906 141.496094 293.332031 139.308594 294.988281 137.65625 C 296.757812 136 298.945312 135.171875 301.542969 135.171875 C 304.261719 135.171875 306.449219 136 308.101562 137.65625 C 309.757812 139.308594 310.585938 141.496094 310.585938 144.21875 L 310.585938 223.148438 C 310.585938 225.75 309.757812 227.9375 308.101562 229.710938 C 306.449219 231.363281 304.261719 232.191406 301.542969 232.191406 Z M 360.742188 232.191406 C 358.144531 232.191406 355.957031 231.363281 354.1875 229.710938 C 352.53125 227.9375 351.703125 225.75 351.703125 223.148438 L 351.703125 172.417969 C 351.703125 164.96875 349.875 159.472656 346.210938 155.921875 C 342.546875 152.257812 337.761719 150.425781 331.851562 150.425781 C 325.707031 150.425781 320.628906 152.554688 316.609375 156.808594 C 312.59375 161.066406 310.585938 166.507812 310.585938 173.128906 L 299.417969 173.128906 C 299.417969 165.441406 300.953125 158.703125 304.027344 152.910156 C 307.097656 146.996094 311.351562 142.382812 316.789062 139.074219 C 322.222656 135.761719 328.425781 134.105469 335.398438 134.105469 C 342.132812 134.105469 348.101562 135.585938 353.300781 138.542969 C 358.496094 141.496094 362.515625 145.871094 365.351562 151.667969 C 368.308594 157.34375 369.785156 164.261719 369.785156 172.417969 L 369.785156 223.148438 C 369.785156 225.75 368.957031 227.9375 367.300781 229.710938 C 365.648438 231.363281 363.460938 232.191406 360.742188 232.191406 Z M 360.742188 232.191406 " fill-opacity="1" fill-rule="nonzero"/><path fill="#ffffff" d="M 504.394531 232.726562 C 494.585938 232.726562 485.84375 230.65625 478.164062 226.515625 C 470.601562 222.261719 464.632812 216.464844 460.261719 209.132812 C 456.007812 201.683594 453.882812 193.171875 453.882812 183.59375 C 453.882812 173.898438 455.890625 165.382812 459.910156 158.050781 C 464.042969 150.601562 469.714844 144.808594 476.921875 140.667969 C 484.128906 136.414062 492.402344 134.285156 501.738281 134.285156 C 510.953125 134.285156 518.871094 136.355469 525.484375 140.492188 C 532.105469 144.511719 537.125 150.128906 540.550781 157.34375 C 544.097656 164.4375 545.871094 172.65625 545.871094 181.996094 C 545.871094 184.242188 545.101562 186.136719 543.566406 187.671875 C 542.03125 189.089844 540.082031 189.800781 537.71875 189.800781 L 466.285156 189.800781 L 466.285156 175.613281 L 537.183594 175.613281 L 529.917969 180.578125 C 529.800781 174.664062 528.617188 169.402344 526.375 164.792969 C 524.128906 160.0625 520.9375 156.335938 516.804688 153.617188 C 512.667969 150.898438 507.644531 149.539062 501.738281 149.539062 C 495.003906 149.539062 489.210938 151.015625 484.367188 153.972656 C 479.640625 156.929688 476.039062 161.007812 473.554688 166.210938 C 471.074219 171.296875 469.832031 177.089844 469.832031 183.59375 C 469.832031 190.097656 471.308594 195.890625 474.261719 200.976562 C 477.21875 206.058594 481.292969 210.082031 486.496094 213.035156 C 491.695312 215.992188 497.660156 217.472656 504.394531 217.472656 C 508.058594 217.472656 511.78125 216.820312 515.5625 215.519531 C 519.460938 214.101562 522.59375 212.503906 524.957031 210.730469 C 526.730469 209.429688 528.617188 208.78125 530.628906 208.78125 C 532.753906 208.660156 534.585938 209.253906 536.121094 210.554688 C 538.132812 212.328125 539.195312 214.277344 539.3125 216.40625 C 539.429688 218.535156 538.484375 220.367188 536.476562 221.90625 C 532.460938 225.097656 527.4375 227.699219 521.410156 229.710938 C 515.503906 231.71875 509.832031 232.726562 504.394531 232.726562 Z M 504.394531 232.726562 " fill-opacity="1" fill-rule="nonzero"/><path fill="#ffffff" d="M 609.425781 232.726562 C 600.207031 232.726562 591.875 230.597656 584.429688 226.339844 C 577.105469 221.964844 571.257812 216.050781 566.882812 208.601562 C 562.628906 201.152344 560.503906 192.757812 560.503906 183.414062 C 560.503906 174.074219 562.453125 165.738281 566.355469 158.40625 C 570.371094 150.957031 575.804688 145.105469 582.660156 140.847656 C 589.511719 136.472656 597.253906 134.285156 605.878906 134.285156 C 612.851562 134.285156 619.289062 135.761719 625.195312 138.71875 C 631.105469 141.554688 636.070312 145.457031 640.085938 150.425781 L 640.085938 102.535156 C 640.085938 99.816406 640.914062 97.628906 642.566406 95.972656 C 644.339844 94.316406 646.527344 93.488281 649.125 93.488281 C 651.84375 93.488281 654.027344 94.316406 655.683594 95.972656 C 657.339844 97.628906 658.164062 99.816406 658.164062 102.535156 L 658.164062 183.414062 C 658.164062 192.757812 655.976562 201.152344 651.609375 208.601562 C 647.355469 216.050781 641.5625 221.964844 634.238281 226.339844 C 626.910156 230.597656 618.640625 232.726562 609.425781 232.726562 Z M 609.425781 216.761719 C 615.449219 216.761719 620.824219 215.34375 625.550781 212.503906 C 630.277344 209.546875 634 205.527344 636.71875 200.445312 C 639.4375 195.359375 640.796875 189.683594 640.796875 183.414062 C 640.796875 177.03125 639.4375 171.355469 636.71875 166.386719 C 634 161.421875 630.277344 157.519531 625.550781 154.683594 C 620.824219 151.726562 615.449219 150.246094 609.425781 150.246094 C 603.515625 150.246094 598.140625 151.726562 593.296875 154.683594 C 588.566406 157.519531 584.785156 161.421875 581.949219 166.386719 C 579.230469 171.355469 577.875 177.03125 577.875 183.414062 C 577.875 189.683594 579.230469 195.359375 581.949219 200.445312 C 584.785156 205.527344 588.566406 209.546875 593.296875 212.503906 C 598.140625 215.34375 603.515625 216.761719 609.425781 216.761719 Z M 609.425781 216.761719 " fill-opacity="1" fill-rule="nonzero"/><path fill="#33ccff" d="M 698.773438 171.355469 C 698.773438 164.261719 700.488281 157.933594 703.917969 152.375 C 707.460938 146.699219 712.1875 142.207031 718.09375 138.894531 C 724.003906 135.585938 730.5 133.929688 737.589844 133.929688 C 744.679688 133.929688 749.941406 135.113281 753.367188 137.476562 C 756.910156 139.722656 758.269531 142.445312 757.445312 145.636719 C 757.089844 147.292969 756.382812 148.59375 755.316406 149.539062 C 754.371094 150.367188 753.25 150.898438 751.949219 151.132812 C 750.648438 151.371094 749.230469 151.3125 747.695312 150.957031 C 740.132812 149.417969 733.335938 149.300781 727.3125 150.601562 C 721.285156 151.902344 716.5 154.328125 712.953125 157.875 C 709.527344 161.421875 707.8125 165.914062 707.8125 171.355469 Z M 698.953125 232.015625 C 696.117188 232.015625 693.929688 231.304688 692.394531 229.886719 C 690.859375 228.347656 690.089844 226.101562 690.089844 223.148438 L 690.089844 143.863281 C 690.089844 141.023438 690.859375 138.835938 692.394531 137.300781 C 693.929688 135.761719 696.117188 134.992188 698.953125 134.992188 C 701.90625 134.992188 704.089844 135.761719 705.507812 137.300781 C 707.046875 138.71875 707.8125 140.90625 707.8125 143.863281 L 707.8125 223.148438 C 707.8125 225.984375 707.046875 228.171875 705.507812 229.710938 C 704.089844 231.246094 701.90625 232.015625 698.953125 232.015625 Z M 698.953125 232.015625 " fill-opacity="1" fill-rule="nonzero"/><path fill="#33ccff" d="M 814.742188 232.726562 C 804.9375 232.726562 796.191406 230.65625 788.511719 226.515625 C 780.949219 222.261719 774.984375 216.464844 770.609375 209.132812 C 766.355469 201.683594 764.230469 193.171875 764.230469 183.59375 C 764.230469 173.898438 766.238281 165.382812 770.257812 158.050781 C 774.390625 150.601562 780.0625 144.808594 787.269531 140.667969 C 794.480469 136.414062 802.75 134.285156 812.085938 134.285156 C 821.300781 134.285156 829.21875 136.355469 835.835938 140.492188 C 842.453125 144.511719 847.476562 150.128906 850.902344 157.34375 C 854.445312 164.4375 856.21875 172.65625 856.21875 181.996094 C 856.21875 184.242188 855.453125 186.136719 853.914062 187.671875 C 852.378906 189.089844 850.429688 189.800781 848.066406 189.800781 L 776.636719 189.800781 L 776.636719 175.613281 L 847.535156 175.613281 L 840.265625 180.578125 C 840.148438 174.664062 838.96875 169.402344 836.722656 164.792969 C 834.476562 160.0625 831.285156 156.335938 827.152344 153.617188 C 823.015625 150.898438 817.992188 149.539062 812.085938 149.539062 C 805.351562 149.539062 799.558594 151.015625 794.714844 153.972656 C 789.988281 156.929688 786.386719 161.007812 783.902344 166.210938 C 781.421875 171.296875 780.179688 177.089844 780.179688 183.59375 C 780.179688 190.097656 781.65625 195.890625 784.613281 200.976562 C 787.566406 206.058594 791.644531 210.082031 796.84375 213.035156 C 802.039062 215.992188 808.007812 217.472656 814.742188 217.472656 C 818.40625 217.472656 822.128906 216.820312 825.910156 215.519531 C 829.808594 214.101562 832.941406 212.503906 835.304688 210.730469 C 837.078125 209.429688 838.96875 208.78125 840.976562 208.78125 C 843.101562 208.660156 844.933594 209.253906 846.46875 210.554688 C 848.476562 212.328125 849.542969 214.277344 849.660156 216.40625 C 849.78125 218.535156 848.832031 220.367188 846.824219 221.90625 C 842.804688 225.097656 837.785156 227.699219 831.757812 229.710938 C 825.851562 231.71875 820.179688 232.726562 814.742188 232.726562 Z M 814.742188 232.726562 " fill-opacity="1" fill-rule="nonzero"/><path fill="#33ccff" d="M 928.019531 232.726562 C 918.800781 232.726562 910.53125 230.597656 903.203125 226.339844 C 895.878906 221.964844 890.089844 216.050781 885.835938 208.601562 C 881.582031 201.152344 879.394531 192.757812 879.277344 183.414062 L 879.277344 102.535156 C 879.277344 99.816406 880.105469 97.628906 881.757812 95.972656 C 883.53125 94.316406 885.714844 93.488281 888.316406 93.488281 C 891.035156 93.488281 893.222656 94.316406 894.875 95.972656 C 896.527344 97.628906 897.355469 99.816406 897.355469 102.535156 L 897.355469 150.425781 C 901.492188 145.457031 906.453125 141.554688 912.246094 138.71875 C 918.152344 135.761719 924.59375 134.285156 931.5625 134.285156 C 940.191406 134.285156 947.929688 136.472656 954.78125 140.847656 C 961.636719 145.105469 967.011719 150.957031 970.910156 158.40625 C 974.929688 165.738281 976.9375 174.074219 976.9375 183.414062 C 976.9375 192.757812 974.753906 201.152344 970.378906 208.601562 C 966.125 216.050781 960.335938 221.964844 953.011719 226.339844 C 945.683594 230.597656 937.355469 232.726562 928.019531 232.726562 Z M 928.019531 216.761719 C 934.046875 216.761719 939.421875 215.34375 944.148438 212.503906 C 948.875 209.546875 952.597656 205.527344 955.316406 200.445312 C 958.152344 195.359375 959.570312 189.683594 959.570312 183.414062 C 959.570312 177.03125 958.152344 171.355469 955.316406 166.386719 C 952.597656 161.421875 948.875 157.519531 944.148438 154.683594 C 939.421875 151.726562 934.046875 150.246094 928.019531 150.246094 C 922.113281 150.246094 916.734375 151.726562 911.890625 154.683594 C 907.164062 157.519531 903.441406 161.421875 900.722656 166.386719 C 898.007812 171.355469 896.648438 177.03125 896.648438 183.414062 C 896.648438 189.683594 898.007812 195.359375 900.722656 200.445312 C 903.441406 205.527344 907.164062 209.546875 911.890625 212.503906 C 916.734375 215.34375 922.113281 216.761719 928.019531 216.761719 Z M 928.019531 216.761719 " fill-opacity="1" fill-rule="nonzero"/><path fill="#33ccff" d="M 1049.453125 232.726562 C 1039.644531 232.726562 1030.902344 230.65625 1023.222656 226.515625 C 1015.65625 222.261719 1009.691406 216.464844 1005.320312 209.132812 C 1001.066406 201.683594 998.9375 193.171875 998.9375 183.59375 C 998.9375 173.898438 1000.945312 165.382812 1004.964844 158.050781 C 1009.097656 150.601562 1014.769531 144.808594 1021.980469 140.667969 C 1029.1875 136.414062 1037.457031 134.285156 1046.792969 134.285156 C 1056.011719 134.285156 1063.929688 136.355469 1070.542969 140.492188 C 1077.160156 144.511719 1082.183594 150.128906 1085.609375 157.34375 C 1089.15625 164.4375 1090.929688 172.65625 1090.929688 181.996094 C 1090.929688 184.242188 1090.160156 186.136719 1088.625 187.671875 C 1087.085938 189.089844 1085.136719 189.800781 1082.773438 189.800781 L 1011.34375 189.800781 L 1011.34375 175.613281 L 1082.242188 175.613281 L 1074.976562 180.578125 C 1074.855469 174.664062 1073.675781 169.402344 1071.429688 164.792969 C 1069.183594 160.0625 1065.996094 156.335938 1061.859375 153.617188 C 1057.726562 150.898438 1052.703125 149.539062 1046.792969 149.539062 C 1040.058594 149.539062 1034.269531 151.015625 1029.425781 153.972656 C 1024.695312 156.929688 1021.09375 161.007812 1018.613281 166.210938 C 1016.132812 171.296875 1014.890625 177.089844 1014.890625 183.59375 C 1014.890625 190.097656 1016.367188 195.890625 1019.320312 200.976562 C 1022.277344 206.058594 1026.351562 210.082031 1031.550781 213.035156 C 1036.75 215.992188 1042.71875 217.472656 1049.453125 217.472656 C 1053.117188 217.472656 1056.839844 216.820312 1060.621094 215.519531 C 1064.519531 214.101562 1067.652344 212.503906 1070.011719 210.730469 C 1071.785156 209.429688 1073.675781 208.78125 1075.683594 208.78125 C 1077.8125 208.660156 1079.640625 209.253906 1081.179688 210.554688 C 1083.1875 212.328125 1084.25 214.277344 1084.371094 216.40625 C 1084.488281 218.535156 1083.542969 220.367188 1081.535156 221.90625 C 1077.515625 225.097656 1072.496094 227.699219 1066.46875 229.710938 C 1060.5625 231.71875 1054.890625 232.726562 1049.453125 232.726562 Z M 1049.453125 232.726562 " fill-opacity="1" fill-rule="nonzero"/><path fill="#33ccff" d="M 1137.027344 232.015625 C 1131.828125 232.015625 1127.222656 230.597656 1123.203125 227.757812 C 1119.183594 224.921875 1116.054688 221.078125 1113.808594 216.230469 C 1111.5625 211.261719 1110.441406 205.585938 1110.441406 199.203125 L 1110.441406 102.359375 C 1110.441406 99.757812 1111.269531 97.628906 1112.921875 95.972656 C 1114.574219 94.316406 1116.703125 93.488281 1119.304688 93.488281 C 1121.902344 93.488281 1124.03125 94.316406 1125.683594 95.972656 C 1127.335938 97.628906 1128.164062 99.757812 1128.164062 102.359375 L 1128.164062 199.203125 C 1128.164062 203.578125 1128.992188 207.183594 1130.648438 210.019531 C 1132.300781 212.859375 1134.425781 214.277344 1137.027344 214.277344 L 1141.457031 214.277344 C 1143.820312 214.277344 1145.710938 215.105469 1147.128906 216.761719 C 1148.667969 218.417969 1149.433594 220.546875 1149.433594 223.148438 C 1149.433594 225.75 1148.3125 227.875 1146.066406 229.53125 C 1143.820312 231.1875 1140.925781 232.015625 1137.382812 232.015625 Z M 1137.027344 232.015625 " fill-opacity="1" fill-rule="nonzero"/><g clip-path="url(#6428d898a3)"><path fill="#008cff" d="M 223.269531 110.117188 L 167.882812 74.089844 L 37.71875 201.574219 L 223.269531 182.175781 Z M 223.269531 110.117188 " fill-opacity="1" fill-rule="nonzero"/></g><g clip-path="url(#61eb2868e6)"><path fill="#005fff" d="M 57.105469 74.089844 L 1.714844 110.117188 L 57.105469 215.429688 L 112.492188 110.117188 Z M 57.105469 74.089844 " fill-opacity="1" fill-rule="nonzero"/></g><g clip-path="url(#d1e03f423e)"><path fill="#33ccff" d="M 57.105469 218.203125 L 112.492188 254.230469 L 223.269531 182.175781 L 120.800781 115.660156 Z M 57.105469 218.203125 " fill-opacity="1" fill-rule="nonzero"/></g><g clip-path="url(#8785d16118)"><path fill="#ffffff" d="M 57.105469 146.144531 L 1.714844 110.117188 L 1.714844 182.175781 L 57.105469 218.203125 L 167.882812 146.144531 L 167.882812 74.089844 Z M 57.105469 146.144531 " fill-opacity="1" fill-rule="nonzero"/></g><g fill="#ffffff" fill-opacity="1"><g transform="translate(1152.594253, 104.869544)"><g><path d="M 16.109375 -29.296875 C 15.898438 -26.941406 15.796875 -23.597656 15.796875 -19.265625 C 15.796875 -14.941406 16.453125 -9.695312 17.765625 -3.53125 L 9.5625 0.625 L 5.8125 -27.640625 C 3.394531 -27.984375 2.1875 -28.8125 2.1875 -30.125 C 2.1875 -31.09375 2.753906 -32.234375 3.890625 -33.546875 C 5.035156 -34.867188 5.882812 -35.960938 6.4375 -36.828125 C 6.988281 -37.691406 7.316406 -38.660156 7.421875 -39.734375 C 7.523438 -40.804688 7.679688 -42.726562 7.890625 -45.5 C 8.097656 -48.269531 8.289062 -51.210938 8.46875 -54.328125 C 8.644531 -57.453125 8.816406 -60.398438 8.984375 -63.171875 C 9.160156 -65.941406 9.25 -67.878906 9.25 -68.984375 C 10.769531 -70.503906 11.878906 -71.441406 12.578125 -71.796875 C 14.304688 -72.691406 15.484375 -72.34375 16.109375 -70.75 L 15.484375 -38.03125 C 32.585938 -38.03125 42.875 -39.132812 46.34375 -41.34375 L 46.34375 -74.1875 C 46.757812 -75.363281 48.695312 -75.953125 52.15625 -75.953125 C 52.914062 -75.953125 53.539062 -75.914062 54.03125 -75.84375 C 54.03125 -74.53125 54.082031 -72.539062 54.1875 -69.875 C 54.289062 -67.207031 54.394531 -64.175781 54.5 -60.78125 C 54.601562 -57.382812 54.722656 -53.796875 54.859375 -50.015625 C 54.992188 -46.242188 55.128906 -42.660156 55.265625 -39.265625 C 55.472656 -32.203125 55.648438 -27.007812 55.796875 -23.6875 C 56.273438 -15.375 57.972656 -8.65625 60.890625 -3.53125 C 57.765625 -2.28125 54.332031 -1.65625 50.59375 -1.65625 C 47.40625 -9.550781 45.707031 -19.910156 45.5 -32.734375 C 40.9375 -32.867188 37.820312 -32.9375 36.15625 -32.9375 C 34.488281 -32.9375 32.617188 -32.832031 30.546875 -32.625 C 26.253906 -32.34375 21.441406 -31.234375 16.109375 -29.296875 Z M 16.109375 -29.296875 "/></g></g></g><g fill="#ffffff" fill-opacity="1"><g transform="translate(1217.008498, 104.869544)"><g><path d="M 12.265625 -61.71875 C 16.066406 -65.382812 22.957031 -67.21875 32.9375 -67.21875 C 39.164062 -67.21875 44.394531 -66.59375 48.625 -65.34375 C 52.851562 -64.101562 56.019531 -62.789062 58.125 -61.40625 C 60.238281 -60.019531 61.296875 -58.492188 61.296875 -56.828125 C 61.296875 -53.023438 56.863281 -49.25 48 -45.5 C 46.6875 -44.882812 43.238281 -43.625 37.65625 -41.71875 C 32.082031 -39.8125 28.328125 -38.507812 26.390625 -37.8125 C 22.160156 -36.21875 19.351562 -34.972656 17.96875 -34.078125 C 17.96875 -33.734375 18.109375 -33.4375 18.390625 -33.1875 C 18.671875 -32.945312 19.328125 -32.53125 20.359375 -31.9375 C 21.398438 -31.351562 22.957031 -30.523438 25.03125 -29.453125 C 27.113281 -28.378906 29.988281 -26.835938 33.65625 -24.828125 C 44.601562 -18.867188 55.859375 -12.5 67.421875 -5.71875 C 67.984375 -5.300781 68.710938 -4.726562 69.609375 -4 C 70.515625 -3.269531 70.96875 -2.472656 70.96875 -1.609375 C 70.96875 -0.742188 70.6875 -0.140625 70.125 0.203125 C 69.570312 0.554688 68.914062 0.816406 68.15625 0.984375 C 67.394531 1.160156 66.597656 1.25 65.765625 1.25 L 63.6875 1.25 C 62.300781 1.25 59.410156 -0.238281 55.015625 -3.21875 C 50.617188 -6.195312 46.804688 -8.796875 43.578125 -11.015625 C 40.359375 -13.234375 37.085938 -15.378906 33.765625 -17.453125 C 25.941406 -22.515625 19.742188 -25.804688 15.171875 -27.328125 L 15.171875 -3.53125 C 15.171875 -2.144531 13.992188 -1.453125 11.640625 -1.453125 L 10.5 -1.453125 C 9.039062 -1.453125 7.960938 -2.179688 7.265625 -3.640625 C 6.296875 -5.859375 5.8125 -9.941406 5.8125 -15.890625 L 6.125 -36.78125 C 6.125 -47.03125 5.675781 -56.035156 4.78125 -63.796875 C 6.4375 -66.628906 8.476562 -66.523438 10.90625 -63.484375 C 11.457031 -62.785156 11.910156 -62.195312 12.265625 -61.71875 Z M 47.375 -60.46875 L 40.625 -60.578125 C 24.96875 -60.578125 15.960938 -58.773438 13.609375 -55.171875 C 12.921875 -54.203125 12.578125 -52.972656 12.578125 -51.484375 C 12.578125 -49.992188 12.644531 -48.691406 12.78125 -47.578125 C 13.125 -44.742188 13.921875 -42.703125 15.171875 -41.453125 C 15.378906 -41.378906 15.742188 -41.34375 16.265625 -41.34375 C 16.785156 -41.34375 17.753906 -41.484375 19.171875 -41.765625 C 20.585938 -42.046875 22.488281 -42.546875 24.875 -43.265625 C 27.269531 -43.992188 29.816406 -44.878906 32.515625 -45.921875 C 35.222656 -46.960938 37.820312 -48.035156 40.3125 -49.140625 C 48.132812 -52.671875 52.046875 -55.546875 52.046875 -57.765625 C 52.046875 -59.015625 50.488281 -59.914062 47.375 -60.46875 Z M 47.375 -60.46875 "/></g></g></g></g></g></svg>